<svg xmlns="http://www.w3.org/2000/svg" style="display:none">

  <!--
    Custom iconpack - Drogaria São Pedro
    Naming: [intention]-[id]
    hpa = High Priority Actions
  -->

  <!-- User / Login -->
  <symbol id="hpa-profile" viewBox="0 0 27 27" fill="none">
    <path d="M2.23801 26.8561C2.23801 26.8561 0 26.8561 0 24.6181C0 22.3801 2.23801 15.666 13.428 15.666C24.6181 15.666 26.8561 22.3801 26.8561 24.6181C26.8561 26.8561 24.6181 26.8561 24.6181 26.8561H2.23801ZM13.428 13.428C17.1361 13.428 20.1421 10.4221 20.1421 6.71402C20.1421 3.00597 17.1361 0 13.428 0C9.71999 0 6.71402 3.00597 6.71402 6.71402C6.71402 10.4221 9.71999 13.428 13.428 13.428Z" fill="currentColor"/>
  </symbol>

  <!-- Cart / Minicart -->
  <symbol id="hpa-cart" viewBox="0 0 28 25" fill="none">
    <path d="M6.99402 15.7369C6.99402 14.7712 7.77685 13.9884 8.74252 13.9884C9.70819 13.9884 10.491 14.7712 10.491 15.7369V19.2339C10.491 20.1996 9.70819 20.9824 8.74252 20.9824C7.77685 20.9824 6.99402 20.1996 6.99402 19.2339V15.7369ZM12.2395 15.7369C12.2395 14.7712 13.0224 13.9884 13.988 13.9884C14.9537 13.9884 15.7365 14.7712 15.7365 15.7369V19.2339C15.7365 20.1996 14.9537 20.9824 13.988 20.9824C13.0224 20.9824 12.2395 20.1996 12.2395 19.2339V15.7369ZM17.485 15.7369C17.485 14.7712 18.2679 13.9884 19.2335 13.9884C20.1992 13.9884 20.982 14.7712 20.982 15.7369V19.2339C20.982 20.1996 20.1992 20.9824 19.2335 20.9824C18.2679 20.9824 17.485 20.1996 17.485 19.2339V15.7369Z" fill="currentColor"/>
    <path d="M10.0661 0.12449C10.4805 0.372616 10.6151 0.909708 10.3669 1.32397L5.91519 8.74287H22.0609L17.6074 1.32397C17.3593 0.909692 17.4939 0.372667 17.9082 0.12449C18.3224 -0.123686 18.8595 0.0109612 19.1076 0.425235L24.0996 8.74287H27.1018C27.5846 8.74287 27.9761 9.13428 27.9761 9.61712V11.3656C27.9761 11.8485 27.5846 12.2399 27.1018 12.2399H26.0125L22.7882 23.5282C22.6273 24.0918 22.1119 24.4801 21.5258 24.4794L6.45198 24.4794C5.8659 24.4801 5.35054 24.0918 5.18956 23.5282L1.96357 12.2399H0.874252C0.391416 12.2399 0 11.8485 0 11.3656V9.61712C0 9.13428 0.391416 8.74287 0.874252 8.74287H3.87643L8.86491 0.425234C9.11304 0.0108868 9.65013 -0.12378 10.0644 0.124494L10.0661 0.12449ZM3.78201 12.2399L6.77895 22.7309H21.1971L24.194 12.2399H3.78201Z" fill="currentColor"/>
  </symbol>

  <!-- Search -->
  <symbol id="hpa-search" viewBox="0 0 26 26" fill="none">
    <path d="M18.9949 16.7291C22.2435 12.2961 21.53 6.10908 17.3575 2.53196C13.1851 -1.04515 6.96169 -0.80535 3.0769 3.08222C-0.80789 6.96979 -1.04324 13.1934 2.53686 17.3632C6.11696 21.5331 12.3045 22.2422 16.7352 18.9904L16.7335 18.9904C16.7821 19.0551 16.8338 19.1166 16.8921 19.1765L23.1197 25.4041C23.7513 26.0361 24.7757 26.0365 25.4077 25.4049C26.0398 24.7733 26.0401 23.7489 25.4085 23.1168L19.1809 16.8892C19.1231 16.8307 19.0609 16.7766 18.9949 16.7275V16.7291ZM19.4122 10.5112C19.4122 15.4246 15.4291 19.4078 10.5156 19.4078C5.60218 19.4078 1.61905 15.4246 1.61905 10.5112C1.61905 5.59774 5.60218 1.6146 10.5156 1.6146C15.4291 1.6146 19.4122 5.59773 19.4122 10.5112Z" fill="currentColor"/>
  </symbol>

</svg>
