<svg width="28" height="25" viewBox="0 0 28 25" fill="none" xmlns="http://www.w3.org/2000/svg">
<path d="M6.99402 15.7369C6.99402 14.7712 7.77685 13.9884 8.74252 13.9884C9.70819 13.9884 10.491 14.7712 10.491 15.7369V19.2339C10.491 20.1996 9.70819 20.9824 8.74252 20.9824C7.77685 20.9824 6.99402 20.1996 6.99402 19.2339V15.7369ZM12.2395 15.7369C12.2395 14.7712 13.0224 13.9884 13.988 13.9884C14.9537 13.9884 15.7365 14.7712 15.7365 15.7369V19.2339C15.7365 20.1996 14.9537 20.9824 13.988 20.9824C13.0224 20.9824 12.2395 20.1996 12.2395 19.2339V15.7369ZM17.485 15.7369C17.485 14.7712 18.2679 13.9884 19.2335 13.9884C20.1992 13.9884 20.982 14.7712 20.982 15.7369V19.2339C20.982 20.1996 20.1992 20.9824 19.2335 20.9824C18.2679 20.9824 17.485 20.1996 17.485 19.2339V15.7369Z" fill="#025789"/>
<path d="M10.0661 0.12449C10.4805 0.372616 10.6151 0.909708 10.3669 1.32397L5.91519 8.74287H22.0609L17.6074 1.32397C17.3593 0.909692 17.4939 0.372667 17.9082 0.12449C18.3224 -0.123686 18.8595 0.0109612 19.1076 0.425235L24.0996 8.74287H27.1018C27.5846 8.74287 27.9761 9.13428 27.9761 9.61712V11.3656C27.9761 11.8485 27.5846 12.2399 27.1018 12.2399H26.0125L22.7882 23.5282C22.6273 24.0918 22.1119 24.4801 21.5258 24.4794L6.45198 24.4794C5.8659 24.4801 5.35054 24.0918 5.18956 23.5282L1.96357 12.2399H0.874252C0.391416 12.2399 0 11.8485 0 11.3656V9.61712C0 9.13428 0.391416 8.74287 0.874252 8.74287H3.87643L8.86491 0.425234C9.11304 0.0108868 9.65013 -0.12378 10.0644 0.124494L10.0661 0.12449ZM3.78201 12.2399L6.77895 22.7309H21.1971L24.194 12.2399H3.78201Z" fill="#025789"/>
</svg>
 