<svg width="26" height="26" viewBox="0 0 26 26" fill="none" xmlns="http://www.w3.org/2000/svg">
<path d="M18.9949 16.7291C22.2435 12.2961 21.53 6.10908 17.3575 2.53196C13.1851 -1.04515 6.96169 -0.80535 3.0769 3.08222C-0.80789 6.96979 -1.04324 13.1934 2.53686 17.3632C6.11696 21.5331 12.3045 22.2422 16.7352 18.9904L16.7335 18.9904C16.7821 19.0551 16.8338 19.1166 16.8921 19.1765L23.1197 25.4041C23.7513 26.0361 24.7757 26.0365 25.4077 25.4049C26.0398 24.7733 26.0401 23.7489 25.4085 23.1168L19.1809 16.8892C19.1231 16.8307 19.0609 16.7766 18.9949 16.7275V16.7291ZM19.4122 10.5112C19.4122 15.4246 15.4291 19.4078 10.5156 19.4078C5.60218 19.4078 1.61905 15.4246 1.61905 10.5112C1.61905 5.59774 5.60218 1.6146 10.5156 1.6146C15.4291 1.6146 19.4122 5.59773 19.4122 10.5112Z" fill="#025789"/>
</svg>
